{
  "accessors": [
    {
      "bufferView": 2,
      "componentType": 5126,
      "count": 29550,
      "max": [
        4.3210601806640625,
        11.850204467773438,
        7.397420883178711
      ],
      "min": [
        0.4263570010662079,
        7.944015979766846,
        0.5881270170211792
      ],
      "type": "VEC3"
    },
    {
      "bufferView": 2,
      "byteOffset": 354600,
      "componentType": 5126,
      "count": 29550,
      "max": [
        0.9998399615287781,
        0.9999638199806213,
        0.9973401427268982
      ],
      "min": [
        -0.9999513626098633,
        -0.9999988675117493,
        -0.9937991499900818
      ],
      "type": "VEC3"
    },
    {
      "bufferView": 1,
      "componentType": 5126,
      "count": 29550,
      "max": [
        0.9974349737167358,
        0.9992290139198303
      ],
      "min": [
        0.0012679999927058816,
        0.0036730000283569098
      ],
      "type": "VEC2"
    },
    {
      "bufferView": 0,
      "componentType": 5125,
      "count": 159747,
      "type": "SCALAR"
    },
    {
      "bufferView": 2,
      "byteOffset": 709200,
      "componentType": 5126,
      "count": 49851,
      "max": [
        4.324297904968262,
        11.856295585632324,
        7.601101875305176
      ],
      "min": [
        0.4274120032787323,
        7.827926158905029,
        0.5560330152511597
      ],
      "type": "VEC3"
    },
    {
      "bufferView": 2,
      "byteOffset": 1307412,
      "componentType": 5126,
      "count": 49851,
      "max": [
        0.9999927878379822,
        0.9999619722366333,
        0.9997193813323975
      ],
      "min": [
        -0.9999066591262817,
        -0.999991238117218,
        -0.9999147653579712
      ],
      "type": "VEC3"
    },
    {
      "bufferView": 1,
      "byteOffset": 236400,
      "componentType": 5126,
      "count": 49851,
      "max": [
        0.9907850027084351,
        0.9955199956893921
      ],
      "min": [
        0.00394099997356534,
        0.0035959999077022076
      ],
      "type": "VEC2"
    },
    {
      "bufferView": 0,
      "byteOffset": 638988,
      "componentType": 5125,
      "count": 279267,
      "type": "SCALAR"
    }
  ],
  "asset": {
    "extras": {
      "author": "Piervincenzo.Nardese (https://sketchfab.com/Piervincenzo.Nardese)",
      "license": "CC-BY-4.0 (http://creativecommons.org/licenses/by/4.0/)",
      "source": "https://sketchfab.com/3d-models/maradona-terracotta-crib-statuette-ed32888b31b64ad09cf71e53fd804224",
      "title": "Maradona terracotta crib statuette"
    },
    "generator": "Sketchfab-12.66.0",
    "version": "2.0"
  },
  "bufferViews": [
    {
      "buffer": 0,
      "byteLength": 1756056,
      "name": "floatBufferViews",
      "target": 34963
    },
    {
      "buffer": 0,
      "byteLength": 635208,
      "byteOffset": 1756056,
      "byteStride": 8,
      "name": "floatBufferViews",
      "target": 34962
    },
    {
      "buffer": 0,
      "byteLength": 1905624,
      "byteOffset": 2391264,
      "byteStride": 12,
      "name": "floatBufferViews",
      "target": 34962
    }
  ],
  "buffers": [
    {
      "byteLength": 4296888,
      "uri": "scene.bin"
    }
  ],
  "images": [
    {
      "uri": "textures/maradona_sketchfab_baseColor.jpeg"
    },
    {
      "uri": "textures/maradona_sketchfab1_baseColor.jpeg"
    }
  ],
  "materials": [
    {
      "doubleSided": true,
      "name": "maradona_sketchfab",
      "pbrMetallicRoughness": {
        "baseColorTexture": {
          "index": 0
        },
        "metallicFactor": 0.0
      }
    },
    {
      "doubleSided": true,
      "name": "maradona_sketchfab1",
      "pbrMetallicRoughness": {
        "baseColorTexture": {
          "index": 1
        },
        "metallicFactor": 0.0
      }
    }
  ],
  "meshes": [
    {
      "name": "Object_0",
      "primitives": [
        {
          "attributes": {
            "NORMAL": 1,
            "POSITION": 0,
            "TEXCOORD_0": 2
          },
          "indices": 3,
          "material": 0,
          "mode": 4
        }
      ]
    },
    {
      "name": "Object_1",
      "primitives": [
        {
          "attributes": {
            "NORMAL": 5,
            "POSITION": 4,
            "TEXCOORD_0": 6
          },
          "indices": 7,
          "material": 1,
          "mode": 4
        }
      ]
    }
  ],
  "nodes": [
    {
      "children": [
        1
      ],
      "matrix": [
        0.04243377785152003,
        -0.011710954879517455,
        0.00021198618590744563,
        0.0,
        -0.0038451799074092907,
        -0.014680715952095072,
        -0.04132200398645636,
        0.0,
        0.011063724389398288,
        0.03981390513686245,
        -0.015174449488133393,
        0.0,
        -0.18585088849067688,
        4.6311354637146,
        1.1459506750106823,
        1.0
      ],
      "name": "Sketchfab_model"
    },
    {
      "children": [
        2,
        3
      ],
      "name": "maradona_sketchfab.obj.cleaner.materialmerger.gles"
    },
    {
      "mesh": 0,
      "name": "Object_2"
    },
    {
      "mesh": 1,
      "name": "Object_3"
    }
  ],
  "samplers": [
    {
      "magFilter": 9729,
      "minFilter": 9987,
      "wrapS": 10497,
      "wrapT": 10497
    }
  ],
  "scene": 0,
  "scenes": [
    {
      "name": "Sketchfab_Scene",
      "nodes": [
        0
      ]
    }
  ],
  "textures": [
    {
      "sampler": 0,
      "source": 0
    },
    {
      "sampler": 0,
      "source": 1
    }
  ]
}
